<svg width="720" height="923" viewBox="0 0 720 923" fill="none" xmlns="http://www.w3.org/2000/svg">
<mask id="mask0_5_158" style="mask-type:alpha" maskUnits="userSpaceOnUse" x="0" y="0" width="720" height="923">
<rect width="720" height="923" fill="#CBB06A"/>
</mask>
<g mask="url(#mask0_5_158)">
<rect x="-21" width="842" height="1025" fill="#CBB06A"/>
</g>
<g clip-path="url(#clip0_5_158)">
<mask id="mask1_5_158" style="mask-type:luminance" maskUnits="userSpaceOnUse" x="0" y="-838" width="2038" height="979">
<path d="M81.5 -837.852H0V140.148H81.5V-837.852Z" fill="white"/>
<path d="M244.5 -837.852H163V140.148H244.5V-837.852Z" fill="white"/>
<path d="M407.5 -837.852H326V140.148H407.5V-837.852Z" fill="white"/>
<path d="M570.5 -837.852H489V140.148H570.5V-837.852Z" fill="white"/>
<path d="M733.5 -837.852H652V140.148H733.5V-837.852Z" fill="white"/>
</mask>
<g mask="url(#mask1_5_158)">
<path opacity="0.25" d="M-27.5062 -810.346L27.5063 -865.359L1005.51 112.641L950.494 167.654L-27.5062 -810.346Z" fill="url(#paint0_linear_5_158)"/>
</g>
<mask id="mask2_5_158" style="mask-type:luminance" maskUnits="userSpaceOnUse" x="81" y="-869" width="1875" height="979">
<path d="M163 -868.415H81.5V109.585H163V-868.415Z" fill="white"/>
<path d="M326 -868.415H244.5V109.585H326V-868.415Z" fill="white"/>
<path d="M489 -868.415H407.5V109.585H489V-868.415Z" fill="white"/>
<path d="M652 -868.415H570.5V109.585H652V-868.415Z" fill="white"/>
</mask>
<g mask="url(#mask2_5_158)">
<path d="M-27.5062 -840.909L27.5063 -895.921L1005.51 82.0788L950.494 137.091L-27.5062 -840.909Z" fill="url(#paint1_linear_5_158)"/>
</g>
<mask id="mask3_5_158" style="mask-type:luminance" maskUnits="userSpaceOnUse" x="0" y="-692" width="2038" height="979">
<path d="M81.5 -691.152H0V286.848H81.5V-691.152Z" fill="white"/>
<path d="M244.5 -691.152H163V286.848H244.5V-691.152Z" fill="white"/>
<path d="M407.5 -691.152H326V286.848H407.5V-691.152Z" fill="white"/>
<path d="M570.5 -691.152H489V286.848H570.5V-691.152Z" fill="white"/>
<path d="M733.5 -691.152H652V286.848H733.5V-691.152Z" fill="white"/>
</mask>
<g mask="url(#mask3_5_158)">
<path opacity="0.25" d="M-27.5062 -663.646L27.5063 -718.659L1005.51 259.341L950.494 314.354L-27.5062 -663.646Z" fill="url(#paint2_linear_5_158)"/>
</g>
<mask id="mask4_5_158" style="mask-type:luminance" maskUnits="userSpaceOnUse" x="81" y="-722" width="1875" height="979">
<path d="M163 -721.715H81.5V256.285H163V-721.715Z" fill="white"/>
<path d="M326 -721.715H244.5V256.285H326V-721.715Z" fill="white"/>
<path d="M489 -721.715H407.5V256.285H489V-721.715Z" fill="white"/>
<path d="M652 -721.715H570.5V256.285H652V-721.715Z" fill="white"/>
</mask>
<g mask="url(#mask4_5_158)">
<path d="M-27.5062 -694.209L27.5063 -749.221L1005.51 228.779L950.494 283.791L-27.5062 -694.209Z" fill="url(#paint3_linear_5_158)"/>
</g>
<mask id="mask5_5_158" style="mask-type:luminance" maskUnits="userSpaceOnUse" x="0" y="-545" width="2038" height="979">
<path d="M81.5 -544.453H0V433.547H81.5V-544.453Z" fill="white"/>
<path d="M244.5 -544.453H163V433.547H244.5V-544.453Z" fill="white"/>
<path d="M407.5 -544.453H326V433.547H407.5V-544.453Z" fill="white"/>
<path d="M570.5 -544.453H489V433.547H570.5V-544.453Z" fill="white"/>
<path d="M733.5 -544.453H652V433.547H733.5V-544.453Z" fill="white"/>
</mask>
<g mask="url(#mask5_5_158)">
<path opacity="0.25" d="M-27.5062 -516.946L27.5063 -571.959L1005.51 406.041L950.494 461.054L-27.5062 -516.946Z" fill="url(#paint4_linear_5_158)"/>
</g>
<mask id="mask6_5_158" style="mask-type:luminance" maskUnits="userSpaceOnUse" x="81" y="-576" width="1875" height="979">
<path d="M163 -575.015H81.5V402.985H163V-575.015Z" fill="white"/>
<path d="M326 -575.015H244.5V402.985H326V-575.015Z" fill="white"/>
<path d="M489 -575.015H407.5V402.985H489V-575.015Z" fill="white"/>
<path d="M652 -575.015H570.5V402.985H652V-575.015Z" fill="white"/>
</mask>
<g mask="url(#mask6_5_158)">
<path d="M-27.5062 -547.509L27.5063 -602.521L1005.51 375.479L950.494 430.491L-27.5062 -547.509Z" fill="url(#paint5_linear_5_158)"/>
</g>
<mask id="mask7_5_158" style="mask-type:luminance" maskUnits="userSpaceOnUse" x="0" y="-398" width="2038" height="979">
<path d="M81.5 -397.753H0V580.247H81.5V-397.753Z" fill="white"/>
<path d="M244.5 -397.753H163V580.247H244.5V-397.753Z" fill="white"/>
<path d="M407.5 -397.753H326V580.247H407.5V-397.753Z" fill="white"/>
<path d="M570.5 -397.753H489V580.247H570.5V-397.753Z" fill="white"/>
<path d="M733.5 -397.753H652V580.247H733.5V-397.753Z" fill="white"/>
</mask>
<g mask="url(#mask7_5_158)">
<path opacity="0.25" d="M-27.5062 -370.246L27.5063 -425.259L1005.51 552.741L950.494 607.754L-27.5062 -370.246Z" fill="url(#paint6_linear_5_158)"/>
</g>
<mask id="mask8_5_158" style="mask-type:luminance" maskUnits="userSpaceOnUse" x="81" y="-429" width="1875" height="979">
<path d="M163 -428.315H81.5V549.685H163V-428.315Z" fill="white"/>
<path d="M326 -428.315H244.5V549.685H326V-428.315Z" fill="white"/>
<path d="M489 -428.315H407.5V549.685H489V-428.315Z" fill="white"/>
<path d="M652 -428.315H570.5V549.685H652V-428.315Z" fill="white"/>
</mask>
<g mask="url(#mask8_5_158)">
<path d="M-27.5062 -400.809L27.5063 -455.821L1005.51 522.179L950.494 577.191L-27.5062 -400.809Z" fill="url(#paint7_linear_5_158)"/>
</g>
<mask id="mask9_5_158" style="mask-type:luminance" maskUnits="userSpaceOnUse" x="0" y="-252" width="2038" height="979">
<path d="M81.5 -251.052H0V726.948H81.5V-251.052Z" fill="white"/>
<path d="M244.5 -251.053H163V726.947H244.5V-251.053Z" fill="white"/>
<path d="M407.5 -251.053H326V726.947H407.5V-251.053Z" fill="white"/>
<path d="M570.5 -251.053H489V726.947H570.5V-251.053Z" fill="white"/>
<path d="M733.5 -251.053H652V726.947H733.5V-251.053Z" fill="white"/>
</mask>
<g mask="url(#mask9_5_158)">
<path opacity="0.25" d="M-27.5062 -223.546L27.5063 -278.559L1005.51 699.441L950.494 754.454L-27.5062 -223.546Z" fill="url(#paint8_linear_5_158)"/>
</g>
<mask id="mask10_5_158" style="mask-type:luminance" maskUnits="userSpaceOnUse" x="81" y="-282" width="1875" height="979">
<path d="M163 -281.615H81.5V696.385H163V-281.615Z" fill="white"/>
<path d="M326 -281.615H244.5V696.385H326V-281.615Z" fill="white"/>
<path d="M489 -281.615H407.5V696.385H489V-281.615Z" fill="white"/>
<path d="M652 -281.615H570.5V696.385H652V-281.615Z" fill="white"/>
</mask>
<g mask="url(#mask10_5_158)">
<path d="M-27.5062 -254.109L27.5063 -309.121L1005.51 668.879L950.494 723.891L-27.5062 -254.109Z" fill="url(#paint9_linear_5_158)"/>
</g>
<mask id="mask11_5_158" style="mask-type:luminance" maskUnits="userSpaceOnUse" x="0" y="-105" width="2038" height="979">
<path d="M81.5 -104.352H0V873.648H81.5V-104.352Z" fill="white"/>
<path d="M244.5 -104.353H163V873.647H244.5V-104.353Z" fill="white"/>
<path d="M407.5 -104.353H326V873.647H407.5V-104.353Z" fill="white"/>
<path d="M570.5 -104.353H489V873.647H570.5V-104.353Z" fill="white"/>
<path d="M733.5 -104.353H652V873.647H733.5V-104.353Z" fill="white"/>
</mask>
<g mask="url(#mask11_5_158)">
<path opacity="0.25" d="M-27.5062 -76.8463L27.5063 -131.859L1005.51 846.141L950.494 901.154L-27.5062 -76.8463Z" fill="url(#paint10_linear_5_158)"/>
</g>
<mask id="mask12_5_158" style="mask-type:luminance" maskUnits="userSpaceOnUse" x="81" y="-135" width="1875" height="979">
<path d="M163 -134.915H81.5V843.085H163V-134.915Z" fill="white"/>
<path d="M326 -134.915H244.5V843.085H326V-134.915Z" fill="white"/>
<path d="M489 -134.915H407.5V843.085H489V-134.915Z" fill="white"/>
<path d="M652 -134.915H570.5V843.085H652V-134.915Z" fill="white"/>
</mask>
<g mask="url(#mask12_5_158)">
<path d="M-27.5062 -107.409L27.5063 -162.421L1005.51 815.579L950.494 870.591L-27.5062 -107.409Z" fill="url(#paint11_linear_5_158)"/>
</g>
<mask id="mask13_5_158" style="mask-type:luminance" maskUnits="userSpaceOnUse" x="0" y="42" width="2038" height="979">
<path d="M81.5 42.3475H0V1020.35H81.5V42.3475Z" fill="white"/>
<path d="M244.5 42.3475H163V1020.35H244.5V42.3475Z" fill="white"/>
<path d="M407.5 42.3475H326V1020.35H407.5V42.3475Z" fill="white"/>
<path d="M570.5 42.3475H489V1020.35H570.5V42.3475Z" fill="white"/>
<path d="M733.5 42.3475H652V1020.35H733.5V42.3475Z" fill="white"/>
</mask>
<g mask="url(#mask13_5_158)">
<path opacity="0.25" d="M-27.5062 69.8537L27.5063 14.8412L1005.51 992.841L950.494 1047.85L-27.5062 69.8537Z" fill="url(#paint12_linear_5_158)"/>
</g>
<mask id="mask14_5_158" style="mask-type:luminance" maskUnits="userSpaceOnUse" x="81" y="11" width="1875" height="979">
<path d="M163 11.785H81.5V989.785H163V11.785Z" fill="white"/>
<path d="M326 11.785H244.5V989.785H326V11.785Z" fill="white"/>
<path d="M489 11.785H407.5V989.785H489V11.785Z" fill="white"/>
<path d="M652 11.785H570.5V989.785H652V11.785Z" fill="white"/>
</mask>
<g mask="url(#mask14_5_158)">
<path d="M-27.5062 39.2912L27.5063 -15.7213L1005.51 962.279L950.494 1017.29L-27.5062 39.2912Z" fill="url(#paint13_linear_5_158)"/>
</g>
<mask id="mask15_5_158" style="mask-type:luminance" maskUnits="userSpaceOnUse" x="0" y="189" width="2038" height="979">
<path d="M81.5 189.048H0V1167.05H81.5V189.048Z" fill="white"/>
<path d="M244.5 189.048H163V1167.05H244.5V189.048Z" fill="white"/>
<path d="M407.5 189.048H326V1167.05H407.5V189.048Z" fill="white"/>
<path d="M570.5 189.048H489V1167.05H570.5V189.048Z" fill="white"/>
<path d="M733.5 189.048H652V1167.05H733.5V189.048Z" fill="white"/>
</mask>
<g mask="url(#mask15_5_158)">
<path opacity="0.25" d="M-27.5062 216.554L27.5063 161.541L1005.51 1139.54L950.494 1194.55L-27.5062 216.554Z" fill="url(#paint14_linear_5_158)"/>
</g>
<mask id="mask16_5_158" style="mask-type:luminance" maskUnits="userSpaceOnUse" x="81" y="158" width="1875" height="979">
<path d="M163 158.485H81.5V1136.49H163V158.485Z" fill="white"/>
<path d="M326 158.485H244.5V1136.49H326V158.485Z" fill="white"/>
<path d="M489 158.485H407.5V1136.49H489V158.485Z" fill="white"/>
<path d="M652 158.485H570.5V1136.49H652V158.485Z" fill="white"/>
</mask>
<g mask="url(#mask16_5_158)">
<path d="M-27.5062 185.991L27.5063 130.979L1005.51 1108.98L950.494 1163.99L-27.5062 185.991Z" fill="url(#paint15_linear_5_158)"/>
</g>
<mask id="mask17_5_158" style="mask-type:luminance" maskUnits="userSpaceOnUse" x="0" y="335" width="2038" height="979">
<path d="M81.5 335.747H0V1313.75H81.5V335.747Z" fill="white"/>
<path d="M244.5 335.747H163V1313.75H244.5V335.747Z" fill="white"/>
<path d="M407.5 335.747H326V1313.75H407.5V335.747Z" fill="white"/>
<path d="M570.5 335.747H489V1313.75H570.5V335.747Z" fill="white"/>
<path d="M733.5 335.747H652V1313.75H733.5V335.747Z" fill="white"/>
</mask>
<g mask="url(#mask17_5_158)">
<path opacity="0.25" d="M-27.5062 363.254L27.5063 308.241L1005.51 1286.24L950.494 1341.25L-27.5062 363.254Z" fill="url(#paint16_linear_5_158)"/>
</g>
<mask id="mask18_5_158" style="mask-type:luminance" maskUnits="userSpaceOnUse" x="81" y="305" width="1875" height="979">
<path d="M163 305.185H81.5V1283.18H163V305.185Z" fill="white"/>
<path d="M326 305.185H244.5V1283.18H326V305.185Z" fill="white"/>
<path d="M489 305.185H407.5V1283.18H489V305.185Z" fill="white"/>
<path d="M652 305.185H570.5V1283.18H652V305.185Z" fill="white"/>
</mask>
<g mask="url(#mask18_5_158)">
<path d="M-27.5062 332.691L27.5063 277.679L1005.51 1255.68L950.494 1310.69L-27.5062 332.691Z" fill="url(#paint17_linear_5_158)"/>
</g>
<mask id="mask19_5_158" style="mask-type:luminance" maskUnits="userSpaceOnUse" x="0" y="482" width="2038" height="979">
<path d="M81.5 482.447H0V1460.45H81.5V482.447Z" fill="white"/>
<path d="M244.5 482.448H163V1460.45H244.5V482.448Z" fill="white"/>
<path d="M407.5 482.448H326V1460.45H407.5V482.448Z" fill="white"/>
<path d="M570.5 482.448H489V1460.45H570.5V482.448Z" fill="white"/>
<path d="M733.5 482.448H652V1460.45H733.5V482.448Z" fill="white"/>
</mask>
<g mask="url(#mask19_5_158)">
<path opacity="0.25" d="M-27.5062 509.954L27.5063 454.941L1005.51 1432.94L950.494 1487.95L-27.5062 509.954Z" fill="url(#paint18_linear_5_158)"/>
</g>
<mask id="mask20_5_158" style="mask-type:luminance" maskUnits="userSpaceOnUse" x="81" y="451" width="1875" height="979">
<path d="M163 451.885H81.5V1429.88H163V451.885Z" fill="white"/>
<path d="M326 451.885H244.5V1429.89H326V451.885Z" fill="white"/>
<path d="M489 451.885H407.5V1429.89H489V451.885Z" fill="white"/>
<path d="M652 451.885H570.5V1429.89H652V451.885Z" fill="white"/>
</mask>
<g mask="url(#mask20_5_158)">
<path d="M-27.5062 479.391L27.5063 424.379L1005.51 1402.38L950.494 1457.39L-27.5062 479.391Z" fill="url(#paint19_linear_5_158)"/>
</g>
</g>
<defs>
<linearGradient id="paint0_linear_5_158" x1="51623.1" y1="-865.359" x2="51623.1" y2="102436" gradientUnits="userSpaceOnUse">
<stop offset="0.45" stop-color="#DABC6C"/>
<stop offset="1" stop-color="#E5E2D1"/>
</linearGradient>
<linearGradient id="paint1_linear_5_158" x1="51623.1" y1="-895.921" x2="51623.1" y2="102405" gradientUnits="userSpaceOnUse">
<stop offset="0.45" stop-color="#DABC6C"/>
<stop offset="1" stop-color="#E5E2D1"/>
</linearGradient>
<linearGradient id="paint2_linear_5_158" x1="51623.1" y1="-718.659" x2="51623.1" y2="102583" gradientUnits="userSpaceOnUse">
<stop offset="0.45" stop-color="#DABC6C"/>
<stop offset="1" stop-color="#E5E2D1"/>
</linearGradient>
<linearGradient id="paint3_linear_5_158" x1="51623.1" y1="-749.221" x2="51623.1" y2="102552" gradientUnits="userSpaceOnUse">
<stop offset="0.45" stop-color="#DABC6C"/>
<stop offset="1" stop-color="#E5E2D1"/>
</linearGradient>
<linearGradient id="paint4_linear_5_158" x1="51623.1" y1="-571.959" x2="51623.1" y2="102729" gradientUnits="userSpaceOnUse">
<stop offset="0.45" stop-color="#DABC6C"/>
<stop offset="1" stop-color="#E5E2D1"/>
</linearGradient>
<linearGradient id="paint5_linear_5_158" x1="51623.1" y1="-602.521" x2="51623.1" y2="102699" gradientUnits="userSpaceOnUse">
<stop offset="0.45" stop-color="#DABC6C"/>
<stop offset="1" stop-color="#E5E2D1"/>
</linearGradient>
<linearGradient id="paint6_linear_5_158" x1="51623.1" y1="-425.259" x2="51623.1" y2="102876" gradientUnits="userSpaceOnUse">
<stop offset="0.45" stop-color="#DABC6C"/>
<stop offset="1" stop-color="#E5E2D1"/>
</linearGradient>
<linearGradient id="paint7_linear_5_158" x1="51623.1" y1="-455.821" x2="51623.1" y2="102845" gradientUnits="userSpaceOnUse">
<stop offset="0.45" stop-color="#DABC6C"/>
<stop offset="1" stop-color="#E5E2D1"/>
</linearGradient>
<linearGradient id="paint8_linear_5_158" x1="51623.1" y1="-278.559" x2="51623.1" y2="103023" gradientUnits="userSpaceOnUse">
<stop offset="0.45" stop-color="#DABC6C"/>
<stop offset="1" stop-color="#E5E2D1"/>
</linearGradient>
<linearGradient id="paint9_linear_5_158" x1="51623.1" y1="-309.121" x2="51623.1" y2="102992" gradientUnits="userSpaceOnUse">
<stop offset="0.45" stop-color="#DABC6C"/>
<stop offset="1" stop-color="#E5E2D1"/>
</linearGradient>
<linearGradient id="paint10_linear_5_158" x1="51623.1" y1="-131.859" x2="51623.1" y2="103169" gradientUnits="userSpaceOnUse">
<stop offset="0.45" stop-color="#DABC6C"/>
<stop offset="1" stop-color="#E5E2D1"/>
</linearGradient>
<linearGradient id="paint11_linear_5_158" x1="51623.1" y1="-162.421" x2="51623.1" y2="103139" gradientUnits="userSpaceOnUse">
<stop offset="0.45" stop-color="#DABC6C"/>
<stop offset="1" stop-color="#E5E2D1"/>
</linearGradient>
<linearGradient id="paint12_linear_5_158" x1="51623.1" y1="14.8412" x2="51623.1" y2="103316" gradientUnits="userSpaceOnUse">
<stop offset="0.45" stop-color="#DABC6C"/>
<stop offset="1" stop-color="#E5E2D1"/>
</linearGradient>
<linearGradient id="paint13_linear_5_158" x1="51623.1" y1="-15.7213" x2="51623.1" y2="103286" gradientUnits="userSpaceOnUse">
<stop offset="0.45" stop-color="#DABC6C"/>
<stop offset="1" stop-color="#E5E2D1"/>
</linearGradient>
<linearGradient id="paint14_linear_5_158" x1="51623.1" y1="161.541" x2="51623.1" y2="103463" gradientUnits="userSpaceOnUse">
<stop offset="0.45" stop-color="#DABC6C"/>
<stop offset="1" stop-color="#E5E2D1"/>
</linearGradient>
<linearGradient id="paint15_linear_5_158" x1="51623.1" y1="130.979" x2="51623.1" y2="103432" gradientUnits="userSpaceOnUse">
<stop offset="0.45" stop-color="#DABC6C"/>
<stop offset="1" stop-color="#E5E2D1"/>
</linearGradient>
<linearGradient id="paint16_linear_5_158" x1="51623.1" y1="308.241" x2="51623.1" y2="103609" gradientUnits="userSpaceOnUse">
<stop offset="0.45" stop-color="#DABC6C"/>
<stop offset="1" stop-color="#E5E2D1"/>
</linearGradient>
<linearGradient id="paint17_linear_5_158" x1="51623.1" y1="277.679" x2="51623.1" y2="103579" gradientUnits="userSpaceOnUse">
<stop offset="0.45" stop-color="#DABC6C"/>
<stop offset="1" stop-color="#E5E2D1"/>
</linearGradient>
<linearGradient id="paint18_linear_5_158" x1="51623.1" y1="454.941" x2="51623.1" y2="103756" gradientUnits="userSpaceOnUse">
<stop offset="0.45" stop-color="#DABC6C"/>
<stop offset="1" stop-color="#E5E2D1"/>
</linearGradient>
<linearGradient id="paint19_linear_5_158" x1="51623.1" y1="424.379" x2="51623.1" y2="103726" gradientUnits="userSpaceOnUse">
<stop offset="0.45" stop-color="#DABC6C"/>
<stop offset="1" stop-color="#E5E2D1"/>
</linearGradient>
<clipPath id="clip0_5_158">
<rect width="978" height="978" fill="white" transform="translate(0 -20)"/>
</clipPath>
</defs>
</svg>
